# xmcd
#
# Track frame offsets:
#	150
#	17222
#	33852
#	54832
#	74975
#	90990
#	111270
#	126577
#	143327
#	158610
#	179432
#
# Disc length: 2531 seconds
#
# Revision: 0
# Processed by: cddbd v1.4PL0 Copyright (c) Steve Scherf et al.
# Submitted via: EasyCDDAExtractor 4.6.9.1
#
DISCID=9009e10b
DTITLE=Alimony - Bottomless
DYEAR=1999
DGENRE=Country
TTITLE0=Like A Waterfall
TTITLE1=Another Gathering
TTITLE2=All We Had (Was Each Other)
TTITLE3=Lead Me Straight
TTITLE4=Wishing Well
TTITLE5=I Fear Myself
TTITLE6=Certain Words You Hate To Hear
TTITLE7=Fading From Black To Grey
TTITLE8=Revolution
TTITLE9=Bottomless
TTITLE10=Some Friends
EXTD=
EXTT0=
EXTT1=
EXTT2=
EXTT3=
EXTT4=
EXTT5=
EXTT6=
EXTT7=
EXTT8=
EXTT9=
EXTT10=
PLAYORDER=
